<svg width="70" height="70" viewBox="0 0 70 70" fill="none" xmlns="http://www.w3.org/2000/svg">
<path fill-rule="evenodd" clip-rule="evenodd" d="M35.0032 69.7561C54.3314 69.7561 70 54.1407 70 34.8781C70 15.6154 54.3314 0 35.0032 0C15.675 0 0.00634766 15.6154 0.00634766 34.8781C0.00634766 54.1407 15.675 69.7561 35.0032 69.7561Z" fill="#3E721D"/>
<path fill-rule="evenodd" clip-rule="evenodd" d="M41.6707 28.3377C42.0864 27.8504 42.8197 27.7911 43.3087 28.2054C43.7977 28.6196 43.8571 29.3504 43.4415 29.8378L33.5645 41.4184C33.1423 41.9133 32.3943 41.9655 31.9071 41.5339L26.6781 36.9016C26.1984 36.4767 26.1552 35.7448 26.5816 35.2667C27.0079 34.7887 27.7424 34.7456 28.2221 35.1706L32.5631 39.0162L41.6707 28.3377Z" fill="white"/>
</svg>
